/* XPM */
static char *result[] = {
/* columns rows colors chars-per-pixel */
"32 32 7 1 ",
"  c black",
". c #26160B",
"X c #3D3B3D",
"o c #542F17",
"O c #6B381D",
"+ c #736FEB",
"@ c None",
/* pixels */
"@@@@@@@@@@@@@@@@@@@@@@@@@@@@@@@@",
"@@@@@@@@@@............@@@@@@@@@@",
"@@@@@@@@................@@@@@@@@",
"@@@@@@@...O          ....@@@@@@@",
"@@@@@@...OO          O....@@@@@@",
"@@@@@....oO          oO....@@@@@",
"@@@@@...OoO          oOO...@@@@@",
"@@@@@..OoOO          oOOO..@@@@@",
"@@@@@.XXoOO          OoOXX.@@@@@",
"@@@@@.XXOOO          OoOXX.@@@@@",
"@@@@@..OOOO          OOOO..@@@@@",
"@@@@@..OOOO          OOOO..@@@@@",
"@@@@@..OOOO          OOOO..@@@@@",
"@@@@@..OoOO          OOoO..@@@@@",
"@@@@@..OoOO          OOoO..@@@@@",
"@@@@@..oOOO          OOoO..@@@@@",
"@@@@@..oOOO          OOoO..@@@@@",
"@@@@@..OOOO          ++oO..@@@@@",
"@@@@@..OOOO          +O+O..@@@@@",
"@@@@@..OOOO          +O+O..@@@@@",
"@@@@@..OOOo          O++O..@@@@@",
"@@@@@..OOOo          OOOO..@@@@@",
"@@@@@..OOoO          OoOO..@@@@@",
"@@@@@..OOoO          OoOO..@@@@@",
"@@@@@..OoOO          OOoO..@@@@@",
"@@@@@..OOOO          OOoO..@@@@@",
"@@@@@..OOOo          OOOO..@@@@@",
"@@@@@..OOoO          OOOO..@@@@@",
"@@@@@..OOOO          OoOO..@@@@@",
"@@@@@..XXOO          OoOXX.@@@@@",
"@@@@@.XXXOO          OOoXX.@@@@@",
"@@@@@..OOO            OoO..@@@@@"
};
