/* XPM */
static char *result[] = {
/* columns rows colors chars-per-pixel */
"32 32 12 1 ",
"  c #36130B",
". c #3D2309",
"X c #573E25",
"o c gray33",
"O c gray47",
"+ c red",
"@ c #9D00FF",
"# c gray63",
"$ c gray83",
"% c #C7E2ED",
"& c white",
"* c None",
/* pixels */
"********************++++++++++**",
"****************+++++++++++++***",
"***************+++++************",
"***********oooo++oooo***********",
"**********oooooooooooo**********",
"**&******oo##########oo*********",
"**&%*****oo####oo####oo*********",
"**&%%****oo#oo#oo#oo#oo*********",
"**&%%****oo#oo#oo#oo#oo*********",
"**&%%****oo#oo#oo#oo#oo*********",
"**&%%****oo##########oo*********",
"**&%%*OOOooooo####oooooOOO******",
"**&%%OOOOO#oooooooooo#OOOOO*****",
"**&&%OOOOO####oooo####O...o*****",
"**&&%OOOOO############O..  *****",
"**&&%oOOOO############O.   *****",
"**&&%ooooo############o.  XX****",
"**&$%%oooo############o.  X@****",
"**&$&%oooo############o.  X@****",
"**&&&%oooo############*.  X@****",
"**&&&%ooo*############*.  X@****",
"*@@@@@@oo**####@@####**.  X@****",
"*@....@oo**...@@@@...**.  X@****",
"**ooooooo**...@@@@...**.  X@****",
"**oooooo**OOO##@@##OOO*.  X@****",
"**oooo****OOOOOOOOOOOO*.  XX****",
"***..*****OOOOOOOOOOOO*.   *****",
"***@@*****OOOO****OOOO*..  *****",
"**********OOOO****OOOO*...******",
"**********OOOO****OOOO**********",
"*********OOOOO****OOOOO*********",
"********OOOOOO****OOOOOO********"
};
